<?xml version="1.0" encoding="utf-8" standalone="no"?>
<!DOCTYPE svg PUBLIC "-//W3C//DTD SVG 1.1//EN"
  "http://www.w3.org/Graphics/SVG/1.1/DTD/svg11.dtd">
<svg xmlns:xlink="http://www.w3.org/1999/xlink" width="1017.812263pt" height="564.397925pt" viewBox="0 0 1017.812263 564.397925" xmlns="http://www.w3.org/2000/svg" version="1.1">
 <metadata>
  <rdf:RDF xmlns:dc="http://purl.org/dc/elements/1.1/" xmlns:cc="http://creativecommons.org/ns#" xmlns:rdf="http://www.w3.org/1999/02/22-rdf-syntax-ns#">
   <cc:Work>
    <dc:type rdf:resource="http://purl.org/dc/dcmitype/StillImage"/>
    <dc:date>2023-04-29T11:20:03.467205</dc:date>
    <dc:format>image/svg+xml</dc:format>
    <dc:creator>
     <cc:Agent>
      <dc:title>Matplotlib v3.7.1, https://matplotlib.org/</dc:title>
     </cc:Agent>
    </dc:creator>
   </cc:Work>
  </rdf:RDF>
 </metadata>
 <defs>
  <style type="text/css">*{stroke-linejoin: round; stroke-linecap: butt}</style>
 </defs>
 <g id="figure_1">
  <g id="patch_1">
   <path d="M 0 564.397925 
L 1017.812263 564.397925 
L 1017.812263 0 
L 0 0 
z
" style="fill: #ffffff"/>
  </g>
  <g id="axes_1">
   <g id="patch_2">
    <path d="M 229.412263 358.724063 
L 1010.612263 358.724063 
L 1010.612263 26.084062 
L 229.412263 26.084062 
z
" style="fill: #eaeaf2"/>
   </g>
   <g id="matplotlib.axis_1">
    <g id="xtick_1">
     <g id="text_1">
      <!-- has_superstructure_mud_mortar_stone -->
      <g style="fill: #262626" transform="translate(13.105195 522.891614) rotate(-30) scale(0.165 -0.165)">
       <defs>
        <path id="ArialMT-68" d="M 422 0 
L 422 4581 
L 984 4581 
L 984 2938 
Q 1378 3394 1978 3394 
Q 2347 3394 2619 3248 
Q 2891 3103 3008 2847 
Q 3125 2591 3125 2103 
L 3125 0 
L 2563 0 
L 2563 2103 
Q 2563 2525 2380 2717 
Q 2197 2909 1863 2909 
Q 1613 2909 1392 2779 
Q 1172 2650 1078 2428 
Q 984 2206 984 1816 
L 984 0 
L 422 0 
z
" transform="scale(0.015625)"/>
        <path id="ArialMT-61" d="M 2588 409 
Q 2275 144 1986 34 
Q 1697 -75 1366 -75 
Q 819 -75 525 192 
Q 231 459 231 875 
Q 231 1119 342 1320 
Q 453 1522 633 1644 
Q 813 1766 1038 1828 
Q 1203 1872 1538 1913 
Q 2219 1994 2541 2106 
Q 2544 2222 2544 2253 
Q 2544 2597 2384 2738 
Q 2169 2928 1744 2928 
Q 1347 2928 1158 2789 
Q 969 2650 878 2297 
L 328 2372 
Q 403 2725 575 2942 
Q 747 3159 1072 3276 
Q 1397 3394 1825 3394 
Q 2250 3394 2515 3294 
Q 2781 3194 2906 3042 
Q 3031 2891 3081 2659 
Q 3109 2516 3109 2141 
L 3109 1391 
Q 3109 606 3145 398 
Q 3181 191 3288 0 
L 2700 0 
Q 2613 175 2588 409 
z
M 2541 1666 
Q 2234 1541 1622 1453 
Q 1275 1403 1131 1340 
Q 988 1278 909 1158 
Q 831 1038 831 891 
Q 831 666 1001 516 
Q 1172 366 1500 366 
Q 1825 366 2078 508 
Q 2331 650 2450 897 
Q 2541 1088 2541 1459 
L 2541 1666 
z
" transform="scale(0.015625)"/>
        <path id="ArialMT-73" d="M 197 991 
L 753 1078 
Q 800 744 1014 566 
Q 1228 388 1613 388 
Q 2000 388 2187 545 
Q 2375 703 2375 916 
Q 2375 1106 2209 1216 
Q 2094 1291 1634 1406 
Q 1016 1563 777 1677 
Q 538 1791 414 1992 
Q 291 2194 291 2438 
Q 291 2659 392 2848 
Q 494 3038 669 3163 
Q 800 3259 1026 3326 
Q 1253 3394 1513 3394 
Q 1903 3394 2198 3281 
Q 2494 3169 2634 2976 
Q 2775 2784 2828 2463 
L 2278 2388 
Q 2241 2644 2061 2787 
Q 1881 2931 1553 2931 
Q 1166 2931 1000 2803 
Q 834 2675 834 2503 
Q 834 2394 903 2306 
Q 972 2216 1119 2156 
Q 1203 2125 1616 2013 
Q 2213 1853 2448 1751 
Q 2684 1650 2818 1456 
Q 2953 1263 2953 975 
Q 2953 694 2789 445 
Q 2625 197 2315 61 
Q 2006 -75 1616 -75 
Q 969 -75 630 194 
Q 291 463 197 991 
z
" transform="scale(0.015625)"/>
        <path id="ArialMT-5f" d="M -97 -1272 
L -97 -866 
L 3631 -866 
L 3631 -1272 
L -97 -1272 
z
" transform="scale(0.015625)"/>
        <path id="ArialMT-75" d="M 2597 0 
L 2597 488 
Q 2209 -75 1544 -75 
Q 1250 -75 995 37 
Q 741 150 617 320 
Q 494 491 444 738 
Q 409 903 409 1263 
L 409 3319 
L 972 3319 
L 972 1478 
Q 972 1038 1006 884 
Q 1059 663 1231 536 
Q 1403 409 1656 409 
Q 1909 409 2131 539 
Q 2353 669 2445 892 
Q 2538 1116 2538 1541 
L 2538 3319 
L 3100 3319 
L 3100 0 
L 2597 0 
z
" transform="scale(0.015625)"/>
        <path id="ArialMT-70" d="M 422 -1272 
L 422 3319 
L 934 3319 
L 934 2888 
Q 1116 3141 1344 3267 
Q 1572 3394 1897 3394 
Q 2322 3394 2647 3175 
Q 2972 2956 3137 2557 
Q 3303 2159 3303 1684 
Q 3303 1175 3120 767 
Q 2938 359 2589 142 
Q 2241 -75 1856 -75 
Q 1575 -75 1351 44 
Q 1128 163 984 344 
L 984 -1272 
L 422 -1272 
z
M 931 1641 
Q 931 1000 1190 694 
Q 1450 388 1819 388 
Q 2194 388 2461 705 
Q 2728 1022 2728 1688 
Q 2728 2322 2467 2637 
Q 2206 2953 1844 2953 
Q 1484 2953 1207 2617 
Q 931 2281 931 1641 
z
" transform="scale(0.015625)"/>
        <path id="ArialMT-65" d="M 2694 1069 
L 3275 997 
Q 3138 488 2766 206 
Q 2394 -75 1816 -75 
Q 1088 -75 661 373 
Q 234 822 234 1631 
Q 234 2469 665 2931 
Q 1097 3394 1784 3394 
Q 2450 3394 2872 2941 
Q 3294 2488 3294 1666 
Q 3294 1616 3291 1516 
L 816 1516 
Q 847 969 1125 678 
Q 1403 388 1819 388 
Q 2128 388 2347 550 
Q 2566 713 2694 1069 
z
M 847 1978 
L 2700 1978 
Q 2663 2397 2488 2606 
Q 2219 2931 1791 2931 
Q 1403 2931 1139 2672 
Q 875 2413 847 1978 
z
" transform="scale(0.015625)"/>
        <path id="ArialMT-72" d="M 416 0 
L 416 3319 
L 922 3319 
L 922 2816 
Q 1116 3169 1280 3281 
Q 1444 3394 1641 3394 
Q 1925 3394 2219 3213 
L 2025 2691 
Q 1819 2813 1613 2813 
Q 1428 2813 1281 2702 
Q 1134 2591 1072 2394 
Q 978 2094 978 1738 
L 978 0 
L 416 0 
z
" transform="scale(0.015625)"/>
        <path id="ArialMT-74" d="M 1650 503 
L 1731 6 
Q 1494 -44 1306 -44 
Q 1000 -44 831 53 
Q 663 150 594 308 
Q 525 466 525 972 
L 525 2881 
L 113 2881 
L 113 3319 
L 525 3319 
L 525 4141 
L 1084 4478 
L 1084 3319 
L 1650 3319 
L 1650 2881 
L 1084 2881 
L 1084 941 
Q 1084 700 1114 631 
Q 1144 563 1211 522 
Q 1278 481 1403 481 
Q 1497 481 1650 503 
z
" transform="scale(0.015625)"/>
        <path id="ArialMT-63" d="M 2588 1216 
L 3141 1144 
Q 3050 572 2676 248 
Q 2303 -75 1759 -75 
Q 1078 -75 664 370 
Q 250 816 250 1647 
Q 250 2184 428 2587 
Q 606 2991 970 3192 
Q 1334 3394 1763 3394 
Q 2303 3394 2647 3120 
Q 2991 2847 3088 2344 
L 2541 2259 
Q 2463 2594 2264 2762 
Q 2066 2931 1784 2931 
Q 1359 2931 1093 2626 
Q 828 2322 828 1663 
Q 828 994 1084 691 
Q 1341 388 1753 388 
Q 2084 388 2306 591 
Q 2528 794 2588 1216 
z
" transform="scale(0.015625)"/>
        <path id="ArialMT-6d" d="M 422 0 
L 422 3319 
L 925 3319 
L 925 2853 
Q 1081 3097 1340 3245 
Q 1600 3394 1931 3394 
Q 2300 3394 2536 3241 
Q 2772 3088 2869 2813 
Q 3263 3394 3894 3394 
Q 4388 3394 4653 3120 
Q 4919 2847 4919 2278 
L 4919 0 
L 4359 0 
L 4359 2091 
Q 4359 2428 4304 2576 
Q 4250 2725 4106 2815 
Q 3963 2906 3769 2906 
Q 3419 2906 3187 2673 
Q 2956 2441 2956 1928 
L 2956 0 
L 2394 0 
L 2394 2156 
Q 2394 2531 2256 2718 
Q 2119 2906 1806 2906 
Q 1569 2906 1367 2781 
Q 1166 2656 1075 2415 
Q 984 2175 984 1722 
L 984 0 
L 422 0 
z
" transform="scale(0.015625)"/>
        <path id="ArialMT-64" d="M 2575 0 
L 2575 419 
Q 2259 -75 1647 -75 
Q 1250 -75 917 144 
Q 584 363 401 755 
Q 219 1147 219 1656 
Q 219 2153 384 2558 
Q 550 2963 881 3178 
Q 1213 3394 1622 3394 
Q 1922 3394 2156 3267 
Q 2391 3141 2538 2938 
L 2538 4581 
L 3097 4581 
L 3097 0 
L 2575 0 
z
M 797 1656 
Q 797 1019 1065 703 
Q 1334 388 1700 388 
Q 2069 388 2326 689 
Q 2584 991 2584 1609 
Q 2584 2291 2321 2609 
Q 2059 2928 1675 2928 
Q 1300 2928 1048 2622 
Q 797 2316 797 1656 
z
" transform="scale(0.015625)"/>
        <path id="ArialMT-6f" d="M 213 1659 
Q 213 2581 725 3025 
Q 1153 3394 1769 3394 
Q 2453 3394 2887 2945 
Q 3322 2497 3322 1706 
Q 3322 1066 3130 698 
Q 2938 331 2570 128 
Q 2203 -75 1769 -75 
Q 1072 -75 642 372 
Q 213 819 213 1659 
z
M 791 1659 
Q 791 1022 1069 705 
Q 1347 388 1769 388 
Q 2188 388 2466 706 
Q 2744 1025 2744 1678 
Q 2744 2294 2464 2611 
Q 2184 2928 1769 2928 
Q 1347 2928 1069 2612 
Q 791 2297 791 1659 
z
" transform="scale(0.015625)"/>
        <path id="ArialMT-6e" d="M 422 0 
L 422 3319 
L 928 3319 
L 928 2847 
Q 1294 3394 1984 3394 
Q 2284 3394 2536 3286 
Q 2788 3178 2913 3003 
Q 3038 2828 3088 2588 
Q 3119 2431 3119 2041 
L 3119 0 
L 2556 0 
L 2556 2019 
Q 2556 2363 2490 2533 
Q 2425 2703 2258 2804 
Q 2091 2906 1866 2906 
Q 1506 2906 1245 2678 
Q 984 2450 984 1813 
L 984 0 
L 422 0 
z
" transform="scale(0.015625)"/>
       </defs>
       <use xlink:href="#ArialMT-68"/>
       <use xlink:href="#ArialMT-61" x="55.615234"/>
       <use xlink:href="#ArialMT-73" x="111.230469"/>
       <use xlink:href="#ArialMT-5f" x="161.230469"/>
       <use xlink:href="#ArialMT-73" x="216.845703"/>
       <use xlink:href="#ArialMT-75" x="266.845703"/>
       <use xlink:href="#ArialMT-70" x="322.460938"/>
       <use xlink:href="#ArialMT-65" x="378.076172"/>
       <use xlink:href="#ArialMT-72" x="433.691406"/>
       <use xlink:href="#ArialMT-73" x="466.992188"/>
       <use xlink:href="#ArialMT-74" x="516.992188"/>
       <use xlink:href="#ArialMT-72" x="544.775391"/>
       <use xlink:href="#ArialMT-75" x="578.076172"/>
       <use xlink:href="#ArialMT-63" x="633.691406"/>
       <use xlink:href="#ArialMT-74" x="683.691406"/>
       <use xlink:href="#ArialMT-75" x="711.474609"/>
       <use xlink:href="#ArialMT-72" x="767.089844"/>
       <use xlink:href="#ArialMT-65" x="800.390625"/>
       <use xlink:href="#ArialMT-5f" x="856.005859"/>
       <use xlink:href="#ArialMT-6d" x="911.621094"/>
       <use xlink:href="#ArialMT-75" x="994.921875"/>
       <use xlink:href="#ArialMT-64" x="1050.537109"/>
       <use xlink:href="#ArialMT-5f" x="1106.152344"/>
       <use xlink:href="#ArialMT-6d" x="1161.767578"/>
       <use xlink:href="#ArialMT-6f" x="1245.068359"/>
       <use xlink:href="#ArialMT-72" x="1300.683594"/>
       <use xlink:href="#ArialMT-74" x="1333.984375"/>
       <use xlink:href="#ArialMT-61" x="1361.767578"/>
       <use xlink:href="#ArialMT-72" x="1417.382812"/>
       <use xlink:href="#ArialMT-5f" x="1450.683594"/>
       <use xlink:href="#ArialMT-73" x="1506.298828"/>
       <use xlink:href="#ArialMT-74" x="1556.298828"/>
       <use xlink:href="#ArialMT-6f" x="1584.082031"/>
       <use xlink:href="#ArialMT-6e" x="1639.697266"/>
       <use xlink:href="#ArialMT-65" x="1695.3125"/>
      </g>
     </g>
    </g>
    <g id="xtick_2">
     <g id="text_2">
      <!-- has_superstructure_timber -->
      <g style="fill: #262626" transform="translate(164.347302 476.574309) rotate(-30) scale(0.165 -0.165)">
       <defs>
        <path id="ArialMT-69" d="M 425 3934 
L 425 4581 
L 988 4581 
L 988 3934 
L 425 3934 
z
M 425 0 
L 425 3319 
L 988 3319 
L 988 0 
L 425 0 
z
" transform="scale(0.015625)"/>
        <path id="ArialMT-62" d="M 941 0 
L 419 0 
L 419 4581 
L 981 4581 
L 981 2947 
Q 1338 3394 1891 3394 
Q 2197 3394 2470 3270 
Q 2744 3147 2920 2923 
Q 3097 2700 3197 2384 
Q 3297 2069 3297 1709 
Q 3297 856 2875 390 
Q 2453 -75 1863 -75 
Q 1275 -75 941 416 
L 941 0 
z
M 934 1684 
Q 934 1088 1097 822 
Q 1363 388 1816 388 
Q 2184 388 2453 708 
Q 2722 1028 2722 1663 
Q 2722 2313 2464 2622 
Q 2206 2931 1841 2931 
Q 1472 2931 1203 2611 
Q 934 2291 934 1684 
z
" transform="scale(0.015625)"/>
       </defs>
       <use xlink:href="#ArialMT-68"/>
       <use xlink:href="#ArialMT-61" x="55.615234"/>
       <use xlink:href="#ArialMT-73" x="111.230469"/>
       <use xlink:href="#ArialMT-5f" x="161.230469"/>
       <use xlink:href="#ArialMT-73" x="216.845703"/>
       <use xlink:href="#ArialMT-75" x="266.845703"/>
       <use xlink:href="#ArialMT-70" x="322.460938"/>
       <use xlink:href="#ArialMT-65" x="378.076172"/>
       <use xlink:href="#ArialMT-72" x="433.691406"/>
       <use xlink:href="#ArialMT-73" x="466.992188"/>
       <use xlink:href="#ArialMT-74" x="516.992188"/>
       <use xlink:href="#ArialMT-72" x="544.775391"/>
       <use xlink:href="#ArialMT-75" x="578.076172"/>
       <use xlink:href="#ArialMT-63" x="633.691406"/>
       <use xlink:href="#ArialMT-74" x="683.691406"/>
       <use xlink:href="#ArialMT-75" x="711.474609"/>
       <use xlink:href="#ArialMT-72" x="767.089844"/>
       <use xlink:href="#ArialMT-65" x="800.390625"/>
       <use xlink:href="#ArialMT-5f" x="856.005859"/>
       <use xlink:href="#ArialMT-74" x="911.621094"/>
       <use xlink:href="#ArialMT-69" x="939.404297"/>
       <use xlink:href="#ArialMT-6d" x="961.621094"/>
       <use xlink:href="#ArialMT-62" x="1044.921875"/>
       <use xlink:href="#ArialMT-65" x="1100.537109"/>
       <use xlink:href="#ArialMT-72" x="1156.152344"/>
      </g>
     </g>
    </g>
    <g id="xtick_3">
     <g id="text_3">
      <!-- has_superstructure_adobe_mud -->
      <g style="fill: #262626" transform="translate(199.590583 497.228958) rotate(-30) scale(0.165 -0.165)">
       <use xlink:href="#ArialMT-68"/>
       <use xlink:href="#ArialMT-61" x="55.615234"/>
       <use xlink:href="#ArialMT-73" x="111.230469"/>
       <use xlink:href="#ArialMT-5f" x="161.230469"/>
       <use xlink:href="#ArialMT-73" x="216.845703"/>
       <use xlink:href="#ArialMT-75" x="266.845703"/>
       <use xlink:href="#ArialMT-70" x="322.460938"/>
       <use xlink:href="#ArialMT-65" x="378.076172"/>
       <use xlink:href="#ArialMT-72" x="433.691406"/>
       <use xlink:href="#ArialMT-73" x="466.992188"/>
       <use xlink:href="#ArialMT-74" x="516.992188"/>
       <use xlink:href="#ArialMT-72" x="544.775391"/>
       <use xlink:href="#ArialMT-75" x="578.076172"/>
       <use xlink:href="#ArialMT-63" x="633.691406"/>
       <use xlink:href="#ArialMT-74" x="683.691406"/>
       <use xlink:href="#ArialMT-75" x="711.474609"/>
       <use xlink:href="#ArialMT-72" x="767.089844"/>
       <use xlink:href="#ArialMT-65" x="800.390625"/>
       <use xlink:href="#ArialMT-5f" x="856.005859"/>
       <use xlink:href="#ArialMT-61" x="911.621094"/>
       <use xlink:href="#ArialMT-64" x="967.236328"/>
       <use xlink:href="#ArialMT-6f" x="1022.851562"/>
       <use xlink:href="#ArialMT-62" x="1078.466797"/>
       <use xlink:href="#ArialMT-65" x="1134.082031"/>
       <use xlink:href="#ArialMT-5f" x="1189.697266"/>
       <use xlink:href="#ArialMT-6d" x="1245.3125"/>
       <use xlink:href="#ArialMT-75" x="1328.613281"/>
       <use xlink:href="#ArialMT-64" x="1384.228516"/>
      </g>
     </g>
    </g>
    <g id="xtick_4">
     <g id="text_4">
      <!-- has_superstructure_bamboo -->
      <g style="fill: #262626" transform="translate(294.447535 483.465637) rotate(-30) scale(0.165 -0.165)">
       <use xlink:href="#ArialMT-68"/>
       <use xlink:href="#ArialMT-61" x="55.615234"/>
       <use xlink:href="#ArialMT-73" x="111.230469"/>
       <use xlink:href="#ArialMT-5f" x="161.230469"/>
       <use xlink:href="#ArialMT-73" x="216.845703"/>
       <use xlink:href="#ArialMT-75" x="266.845703"/>
       <use xlink:href="#ArialMT-70" x="322.460938"/>
       <use xlink:href="#ArialMT-65" x="378.076172"/>
       <use xlink:href="#ArialMT-72" x="433.691406"/>
       <use xlink:href="#ArialMT-73" x="466.992188"/>
       <use xlink:href="#ArialMT-74" x="516.992188"/>
       <use xlink:href="#ArialMT-72" x="544.775391"/>
       <use xlink:href="#ArialMT-75" x="578.076172"/>
       <use xlink:href="#ArialMT-63" x="633.691406"/>
       <use xlink:href="#ArialMT-74" x="683.691406"/>
       <use xlink:href="#ArialMT-75" x="711.474609"/>
       <use xlink:href="#ArialMT-72" x="767.089844"/>
       <use xlink:href="#ArialMT-65" x="800.390625"/>
       <use xlink:href="#ArialMT-5f" x="856.005859"/>
       <use xlink:href="#ArialMT-62" x="911.621094"/>
       <use xlink:href="#ArialMT-61" x="967.236328"/>
       <use xlink:href="#ArialMT-6d" x="1022.851562"/>
       <use xlink:href="#ArialMT-62" x="1106.152344"/>
       <use xlink:href="#ArialMT-6f" x="1161.767578"/>
       <use xlink:href="#ArialMT-6f" x="1217.382812"/>
      </g>
     </g>
    </g>
    <g id="xtick_5">
     <g id="text_5">
      <!-- has_superstructure_cement_mortar_brick -->
      <g style="fill: #262626" transform="translate(282.9019 531.13388) rotate(-30) scale(0.165 -0.165)">
       <defs>
        <path id="ArialMT-6b" d="M 425 0 
L 425 4581 
L 988 4581 
L 988 1969 
L 2319 3319 
L 3047 3319 
L 1778 2088 
L 3175 0 
L 2481 0 
L 1384 1697 
L 988 1316 
L 988 0 
L 425 0 
z
" transform="scale(0.015625)"/>
       </defs>
       <use xlink:href="#ArialMT-68"/>
       <use xlink:href="#ArialMT-61" x="55.615234"/>
       <use xlink:href="#ArialMT-73" x="111.230469"/>
       <use xlink:href="#ArialMT-5f" x="161.230469"/>
       <use xlink:href="#ArialMT-73" x="216.845703"/>
       <use xlink:href="#ArialMT-75" x="266.845703"/>
       <use xlink:href="#ArialMT-70" x="322.460938"/>
       <use xlink:href="#ArialMT-65" x="378.076172"/>
       <use xlink:href="#ArialMT-72" x="433.691406"/>
       <use xlink:href="#ArialMT-73" x="466.992188"/>
       <use xlink:href="#ArialMT-74" x="516.992188"/>
       <use xlink:href="#ArialMT-72" x="544.775391"/>
       <use xlink:href="#ArialMT-75" x="578.076172"/>
       <use xlink:href="#ArialMT-63" x="633.691406"/>
       <use xlink:href="#ArialMT-74" x="683.691406"/>
       <use xlink:href="#ArialMT-75" x="711.474609"/>
       <use xlink:href="#ArialMT-72" x="767.089844"/>
       <use xlink:href="#ArialMT-65" x="800.390625"/>
       <use xlink:href="#ArialMT-5f" x="856.005859"/>
       <use xlink:href="#ArialMT-63" x="911.621094"/>
       <use xlink:href="#ArialMT-65" x="961.621094"/>
       <use xlink:href="#ArialMT-6d" x="1017.236328"/>
       <use xlink:href="#ArialMT-65" x="1100.537109"/>
       <use xlink:href="#ArialMT-6e" x="1156.152344"/>
       <use xlink:href="#ArialMT-74" x="1211.767578"/>
       <use xlink:href="#ArialMT-5f" x="1239.550781"/>
       <use xlink:href="#ArialMT-6d" x="1295.166016"/>
       <use xlink:href="#ArialMT-6f" x="1378.466797"/>
       <use xlink:href="#ArialMT-72" x="1434.082031"/>
       <use xlink:href="#ArialMT-74" x="1467.382812"/>
       <use xlink:href="#ArialMT-61" x="1495.166016"/>
       <use xlink:href="#ArialMT-72" x="1550.78125"/>
       <use xlink:href="#ArialMT-5f" x="1584.082031"/>
       <use xlink:href="#ArialMT-62" x="1639.697266"/>
       <use xlink:href="#ArialMT-72" x="1695.3125"/>
       <use xlink:href="#ArialMT-69" x="1728.613281"/>
       <use xlink:href="#ArialMT-63" x="1750.830078"/>
       <use xlink:href="#ArialMT-6b" x="1800.830078"/>
      </g>
     </g>
    </g>
    <g id="xtick_6">
     <g id="text_6">
      <!-- has_superstructure_mud_mortar_brick -->
      <g style="fill: #262626" transform="translate(372.980827 520.129153) rotate(-30) scale(0.165 -0.165)">
       <use xlink:href="#ArialMT-68"/>
       <use xlink:href="#ArialMT-61" x="55.615234"/>
       <use xlink:href="#ArialMT-73" x="111.230469"/>
       <use xlink:href="#ArialMT-5f" x="161.230469"/>
       <use xlink:href="#ArialMT-73" x="216.845703"/>
       <use xlink:href="#ArialMT-75" x="266.845703"/>
       <use xlink:href="#ArialMT-70" x="322.460938"/>
       <use xlink:href="#ArialMT-65" x="378.076172"/>
       <use xlink:href="#ArialMT-72" x="433.691406"/>
       <use xlink:href="#ArialMT-73" x="466.992188"/>
       <use xlink:href="#ArialMT-74" x="516.992188"/>
       <use xlink:href="#ArialMT-72" x="544.775391"/>
       <use xlink:href="#ArialMT-75" x="578.076172"/>
       <use xlink:href="#ArialMT-63" x="633.691406"/>
       <use xlink:href="#ArialMT-74" x="683.691406"/>
       <use xlink:href="#ArialMT-75" x="711.474609"/>
       <use xlink:href="#ArialMT-72" x="767.089844"/>
       <use xlink:href="#ArialMT-65" x="800.390625"/>
       <use xlink:href="#ArialMT-5f" x="856.005859"/>
       <use xlink:href="#ArialMT-6d" x="911.621094"/>
       <use xlink:href="#ArialMT-75" x="994.921875"/>
       <use xlink:href="#ArialMT-64" x="1050.537109"/>
       <use xlink:href="#ArialMT-5f" x="1106.152344"/>
       <use xlink:href="#ArialMT-6d" x="1161.767578"/>
       <use xlink:href="#ArialMT-6f" x="1245.068359"/>
       <use xlink:href="#ArialMT-72" x="1300.683594"/>
       <use xlink:href="#ArialMT-74" x="1333.984375"/>
       <use xlink:href="#ArialMT-61" x="1361.767578"/>
       <use xlink:href="#ArialMT-72" x="1417.382812"/>
       <use xlink:href="#ArialMT-5f" x="1450.683594"/>
       <use xlink:href="#ArialMT-62" x="1506.298828"/>
       <use xlink:href="#ArialMT-72" x="1561.914062"/>
       <use xlink:href="#ArialMT-69" x="1595.214844"/>
       <use xlink:href="#ArialMT-63" x="1617.431641"/>
       <use xlink:href="#ArialMT-6b" x="1667.431641"/>
      </g>
     </g>
    </g>
    <g id="xtick_7">
     <g id="text_7">
      <!-- has_superstructure_rc_non_engineered -->
      <g style="fill: #262626" transform="translate(435.902487 524.747864) rotate(-30) scale(0.165 -0.165)">
       <defs>
        <path id="ArialMT-67" d="M 319 -275 
L 866 -356 
Q 900 -609 1056 -725 
Q 1266 -881 1628 -881 
Q 2019 -881 2231 -725 
Q 2444 -569 2519 -288 
Q 2563 -116 2559 434 
Q 2191 0 1641 0 
Q 956 0 581 494 
Q 206 988 206 1678 
Q 206 2153 378 2554 
Q 550 2956 876 3175 
Q 1203 3394 1644 3394 
Q 2231 3394 2613 2919 
L 2613 3319 
L 3131 3319 
L 3131 450 
Q 3131 -325 2973 -648 
Q 2816 -972 2473 -1159 
Q 2131 -1347 1631 -1347 
Q 1038 -1347 672 -1080 
Q 306 -813 319 -275 
z
M 784 1719 
Q 784 1066 1043 766 
Q 1303 466 1694 466 
Q 2081 466 2343 764 
Q 2606 1063 2606 1700 
Q 2606 2309 2336 2618 
Q 2066 2928 1684 2928 
Q 1309 2928 1046 2623 
Q 784 2319 784 1719 
z
" transform="scale(0.015625)"/>
       </defs>
       <use xlink:href="#ArialMT-68"/>
       <use xlink:href="#ArialMT-61" x="55.615234"/>
       <use xlink:href="#ArialMT-73" x="111.230469"/>
       <use xlink:href="#ArialMT-5f" x="161.230469"/>
       <use xlink:href="#ArialMT-73" x="216.845703"/>
       <use xlink:href="#ArialMT-75" x="266.845703"/>
       <use xlink:href="#ArialMT-70" x="322.460938"/>
       <use xlink:href="#ArialMT-65" x="378.076172"/>
       <use xlink:href="#ArialMT-72" x="433.691406"/>
       <use xlink:href="#ArialMT-73" x="466.992188"/>
       <use xlink:href="#ArialMT-74" x="516.992188"/>
       <use xlink:href="#ArialMT-72" x="544.775391"/>
       <use xlink:href="#ArialMT-75" x="578.076172"/>
       <use xlink:href="#ArialMT-63" x="633.691406"/>
       <use xlink:href="#ArialMT-74" x="683.691406"/>
       <use xlink:href="#ArialMT-75" x="711.474609"/>
       <use xlink:href="#ArialMT-72" x="767.089844"/>
       <use xlink:href="#ArialMT-65" x="800.390625"/>
       <use xlink:href="#ArialMT-5f" x="856.005859"/>
       <use xlink:href="#ArialMT-72" x="911.621094"/>
       <use xlink:href="#ArialMT-63" x="944.921875"/>
       <use xlink:href="#ArialMT-5f" x="994.921875"/>
       <use xlink:href="#ArialMT-6e" x="1050.537109"/>
       <use xlink:href="#ArialMT-6f" x="1106.152344"/>
       <use xlink:href="#ArialMT-6e" x="1161.767578"/>
       <use xlink:href="#ArialMT-5f" x="1217.382812"/>
       <use xlink:href="#ArialMT-65" x="1272.998047"/>
       <use xlink:href="#ArialMT-6e" x="1328.613281"/>
       <use xlink:href="#ArialMT-67" x="1384.228516"/>
       <use xlink:href="#ArialMT-69" x="1439.84375"/>
       <use xlink:href="#ArialMT-6e" x="1462.060547"/>
       <use xlink:href="#ArialMT-65" x="1517.675781"/>
       <use xlink:href="#ArialMT-65" x="1573.291016"/>
       <use xlink:href="#ArialMT-72" x="1628.90625"/>
       <use xlink:href="#ArialMT-65" x="1662.207031"/>
       <use xlink:href="#ArialMT-64" x="1717.822266"/>
      </g>
     </g>
    </g>
    <g id="xtick_8">
     <g id="text_8">
      <!-- has_superstructure_stone_flag -->
      <g style="fill: #262626" transform="translate(564.120767 491.897524) rotate(-30) scale(0.165 -0.165)">
       <defs>
        <path id="ArialMT-66" d="M 556 0 
L 556 2881 
L 59 2881 
L 59 3319 
L 556 3319 
L 556 3672 
Q 556 4006 616 4169 
Q 697 4388 901 4523 
Q 1106 4659 1475 4659 
Q 1713 4659 2000 4603 
L 1916 4113 
Q 1741 4144 1584 4144 
Q 1328 4144 1222 4034 
Q 1116 3925 1116 3625 
L 1116 3319 
L 1763 3319 
L 1763 2881 
L 1116 2881 
L 1116 0 
L 556 0 
z
" transform="scale(0.015625)"/>
        <path id="ArialMT-6c" d="M 409 0 
L 409 4581 
L 972 4581 
L 972 0 
L 409 0 
z
" transform="scale(0.015625)"/>
       </defs>
       <use xlink:href="#ArialMT-68"/>
       <use xlink:href="#ArialMT-61" x="55.615234"/>
       <use xlink:href="#ArialMT-73" x="111.230469"/>
       <use xlink:href="#ArialMT-5f" x="161.230469"/>
       <use xlink:href="#ArialMT-73" x="216.845703"/>
       <use xlink:href="#ArialMT-75" x="266.845703"/>
       <use xlink:href="#ArialMT-70" x="322.460938"/>
       <use xlink:href="#ArialMT-65" x="378.076172"/>
       <use xlink:href="#ArialMT-72" x="433.691406"/>
       <use xlink:href="#ArialMT-73" x="466.992188"/>
       <use xlink:href="#ArialMT-74" x="516.992188"/>
       <use xlink:href="#ArialMT-72" x="544.775391"/>
       <use xlink:href="#ArialMT-75" x="578.076172"/>
       <use xlink:href="#ArialMT-63" x="633.691406"/>
       <use xlink:href="#ArialMT-74" x="683.691406"/>
       <use xlink:href="#ArialMT-75" x="711.474609"/>
       <use xlink:href="#ArialMT-72" x="767.089844"/>
       <use xlink:href="#ArialMT-65" x="800.390625"/>
       <use xlink:href="#ArialMT-5f" x="856.005859"/>
       <use xlink:href="#ArialMT-73" x="911.621094"/>
       <use xlink:href="#ArialMT-74" x="961.621094"/>
       <use xlink:href="#ArialMT-6f" x="989.404297"/>
       <use xlink:href="#ArialMT-6e" x="1045.019531"/>
       <use xlink:href="#ArialMT-65" x="1100.634766"/>
       <use xlink:href="#ArialMT-5f" x="1156.25"/>
       <use xlink:href="#ArialMT-66" x="1211.865234"/>
       <use xlink:href="#ArialMT-6c" x="1239.648438"/>
       <use xlink:href="#ArialMT-61" x="1261.865234"/>
       <use xlink:href="#ArialMT-67" x="1317.480469"/>
      </g>
     </g>
    </g>
    <g id="xtick_9">
     <g id="text_9">
      <!-- has_superstructure_cement_mortar_stone -->
      <g style="fill: #262626" transform="translate(562.189904 533.89634) rotate(-30) scale(0.165 -0.165)">
       <use xlink:href="#ArialMT-68"/>
       <use xlink:href="#ArialMT-61" x="55.615234"/>
       <use xlink:href="#ArialMT-73" x="111.230469"/>
       <use xlink:href="#ArialMT-5f" x="161.230469"/>
       <use xlink:href="#ArialMT-73" x="216.845703"/>
       <use xlink:href="#ArialMT-75" x="266.845703"/>
       <use xlink:href="#ArialMT-70" x="322.460938"/>
       <use xlink:href="#ArialMT-65" x="378.076172"/>
       <use xlink:href="#ArialMT-72" x="433.691406"/>
       <use xlink:href="#ArialMT-73" x="466.992188"/>
       <use xlink:href="#ArialMT-74" x="516.992188"/>
       <use xlink:href="#ArialMT-72" x="544.775391"/>
       <use xlink:href="#ArialMT-75" x="578.076172"/>
       <use xlink:href="#ArialMT-63" x="633.691406"/>
       <use xlink:href="#ArialMT-74" x="683.691406"/>
       <use xlink:href="#ArialMT-75" x="711.474609"/>
       <use xlink:href="#ArialMT-72" x="767.089844"/>
       <use xlink:href="#ArialMT-65" x="800.390625"/>
       <use xlink:href="#ArialMT-5f" x="856.005859"/>
       <use xlink:href="#ArialMT-63" x="911.621094"/>
       <use xlink:href="#ArialMT-65" x="961.621094"/>
       <use xlink:href="#ArialMT-6d" x="1017.236328"/>
       <use xlink:href="#ArialMT-65" x="1100.537109"/>
       <use xlink:href="#ArialMT-6e" x="1156.152344"/>
       <use xlink:href="#ArialMT-74" x="1211.767578"/>
       <use xlink:href="#ArialMT-5f" x="1239.550781"/>
       <use xlink:href="#ArialMT-6d" x="1295.166016"/>
       <use xlink:href="#ArialMT-6f" x="1378.466797"/>
       <use xlink:href="#ArialMT-72" x="1434.082031"/>
       <use xlink:href="#ArialMT-74" x="1467.382812"/>
       <use xlink:href="#ArialMT-61" x="1495.166016"/>
       <use xlink:href="#ArialMT-72" x="1550.78125"/>
       <use xlink:href="#ArialMT-5f" x="1584.082031"/>
       <use xlink:href="#ArialMT-73" x="1639.697266"/>
       <use xlink:href="#ArialMT-74" x="1689.697266"/>
       <use xlink:href="#ArialMT-6f" x="1717.480469"/>
       <use xlink:href="#ArialMT-6e" x="1773.095703"/>
       <use xlink:href="#ArialMT-65" x="1828.710938"/>
      </g>
     </g>
    </g>
    <g id="xtick_10">
     <g id="text_10">
      <!-- has_superstructure_rc_engineered -->
      <g style="fill: #262626" transform="translate(680.742059 506.39677) rotate(-30) scale(0.165 -0.165)">
       <use xlink:href="#ArialMT-68"/>
       <use xlink:href="#ArialMT-61" x="55.615234"/>
       <use xlink:href="#ArialMT-73" x="111.230469"/>
       <use xlink:href="#ArialMT-5f" x="161.230469"/>
       <use xlink:href="#ArialMT-73" x="216.845703"/>
       <use xlink:href="#ArialMT-75" x="266.845703"/>
       <use xlink:href="#ArialMT-70" x="322.460938"/>
       <use xlink:href="#ArialMT-65" x="378.076172"/>
       <use xlink:href="#ArialMT-72" x="433.691406"/>
       <use xlink:href="#ArialMT-73" x="466.992188"/>
       <use xlink:href="#ArialMT-74" x="516.992188"/>
       <use xlink:href="#ArialMT-72" x="544.775391"/>
       <use xlink:href="#ArialMT-75" x="578.076172"/>
       <use xlink:href="#ArialMT-63" x="633.691406"/>
       <use xlink:href="#ArialMT-74" x="683.691406"/>
       <use xlink:href="#ArialMT-75" x="711.474609"/>
       <use xlink:href="#ArialMT-72" x="767.089844"/>
       <use xlink:href="#ArialMT-65" x="800.390625"/>
       <use xlink:href="#ArialMT-5f" x="856.005859"/>
       <use xlink:href="#ArialMT-72" x="911.621094"/>
       <use xlink:href="#ArialMT-63" x="944.921875"/>
       <use xlink:href="#ArialMT-5f" x="994.921875"/>
       <use xlink:href="#ArialMT-65" x="1050.537109"/>
       <use xlink:href="#ArialMT-6e" x="1106.152344"/>
       <use xlink:href="#ArialMT-67" x="1161.767578"/>
       <use xlink:href="#ArialMT-69" x="1217.382812"/>
       <use xlink:href="#ArialMT-6e" x="1239.599609"/>
       <use xlink:href="#ArialMT-65" x="1295.214844"/>
       <use xlink:href="#ArialMT-65" x="1350.830078"/>
       <use xlink:href="#ArialMT-72" x="1406.445312"/>
       <use xlink:href="#ArialMT-65" x="1439.746094"/>
       <use xlink:href="#ArialMT-64" x="1495.361328"/>
      </g>
     </g>
    </g>
    <g id="xtick_11">
     <g id="text_11">
      <!-- has_superstructure_other -->
      <g style="fill: #262626" transform="translate(810.642252 472.457044) rotate(-30) scale(0.165 -0.165)">
       <use xlink:href="#ArialMT-68"/>
       <use xlink:href="#ArialMT-61" x="55.615234"/>
       <use xlink:href="#ArialMT-73" x="111.230469"/>
       <use xlink:href="#ArialMT-5f" x="161.230469"/>
       <use xlink:href="#ArialMT-73" x="216.845703"/>
       <use xlink:href="#ArialMT-75" x="266.845703"/>
       <use xlink:href="#ArialMT-70" x="322.460938"/>
       <use xlink:href="#ArialMT-65" x="378.076172"/>
       <use xlink:href="#ArialMT-72" x="433.691406"/>
       <use xlink:href="#ArialMT-73" x="466.992188"/>
       <use xlink:href="#ArialMT-74" x="516.992188"/>
       <use xlink:href="#ArialMT-72" x="544.775391"/>
       <use xlink:href="#ArialMT-75" x="578.076172"/>
       <use xlink:href="#ArialMT-63" x="633.691406"/>
       <use xlink:href="#ArialMT-74" x="683.691406"/>
       <use xlink:href="#ArialMT-75" x="711.474609"/>
       <use xlink:href="#ArialMT-72" x="767.089844"/>
       <use xlink:href="#ArialMT-65" x="800.390625"/>
       <use xlink:href="#ArialMT-5f" x="856.005859"/>
       <use xlink:href="#ArialMT-6f" x="911.621094"/>
       <use xlink:href="#ArialMT-74" x="967.236328"/>
       <use xlink:href="#ArialMT-68" x="995.019531"/>
       <use xlink:href="#ArialMT-65" x="1050.634766"/>
       <use xlink:href="#ArialMT-72" x="1106.25"/>
      </g>
     </g>
    </g>
    <g id="text_12">
     <!-- feature -->
     <g style="fill: #262626" transform="translate(591.995545 553.620425) scale(0.18 -0.18)">
      <use xlink:href="#ArialMT-66"/>
      <use xlink:href="#ArialMT-65" x="27.783203"/>
      <use xlink:href="#ArialMT-61" x="83.398438"/>
      <use xlink:href="#ArialMT-74" x="139.013672"/>
      <use xlink:href="#ArialMT-75" x="166.796875"/>
      <use xlink:href="#ArialMT-72" x="222.412109"/>
      <use xlink:href="#ArialMT-65" x="255.712891"/>
     </g>
    </g>
   </g>
   <g id="matplotlib.axis_2">
    <g id="ytick_1">
     <g id="line2d_1">
      <path d="M 229.412263 358.724063 
L 1010.612263 358.724063 
" clip-path="url(#pe677a2bb00)" style="fill: none; stroke: #ffffff; stroke-linecap: round"/>
     </g>
     <g id="text_13">
      <!-- 0 -->
      <g style="fill: #262626" transform="translate(210.736716 364.629258) scale(0.165 -0.165)">
       <defs>
        <path id="ArialMT-30" d="M 266 2259 
Q 266 3072 433 3567 
Q 600 4063 929 4331 
Q 1259 4600 1759 4600 
Q 2128 4600 2406 4451 
Q 2684 4303 2865 4023 
Q 3047 3744 3150 3342 
Q 3253 2941 3253 2259 
Q 3253 1453 3087 958 
Q 2922 463 2592 192 
Q 2263 -78 1759 -78 
Q 1097 -78 719 397 
Q 266 969 266 2259 
z
M 844 2259 
Q 844 1131 1108 757 
Q 1372 384 1759 384 
Q 2147 384 2411 759 
Q 2675 1134 2675 2259 
Q 2675 3391 2411 3762 
Q 2147 4134 1753 4134 
Q 1366 4134 1134 3806 
Q 844 3388 844 2259 
z
" transform="scale(0.015625)"/>
       </defs>
       <use xlink:href="#ArialMT-30"/>
      </g>
     </g>
    </g>
    <g id="ytick_2">
     <g id="line2d_2">
      <path d="M 229.412263 318.837076 
L 1010.612263 318.837076 
" clip-path="url(#pe677a2bb00)" style="fill: none; stroke: #ffffff; stroke-linecap: round"/>
     </g>
     <g id="text_14">
      <!-- 25000 -->
      <g style="fill: #262626" transform="translate(174.034529 324.742271) scale(0.165 -0.165)">
       <defs>
        <path id="ArialMT-32" d="M 3222 541 
L 3222 0 
L 194 0 
Q 188 203 259 391 
Q 375 700 629 1000 
Q 884 1300 1366 1694 
Q 2113 2306 2375 2664 
Q 2638 3022 2638 3341 
Q 2638 3675 2398 3904 
Q 2159 4134 1775 4134 
Q 1369 4134 1125 3890 
Q 881 3647 878 3216 
L 300 3275 
Q 359 3922 746 4261 
Q 1134 4600 1788 4600 
Q 2447 4600 2831 4234 
Q 3216 3869 3216 3328 
Q 3216 3053 3103 2787 
Q 2991 2522 2730 2228 
Q 2469 1934 1863 1422 
Q 1356 997 1212 845 
Q 1069 694 975 541 
L 3222 541 
z
" transform="scale(0.015625)"/>
        <path id="ArialMT-35" d="M 266 1200 
L 856 1250 
Q 922 819 1161 601 
Q 1400 384 1738 384 
Q 2144 384 2425 690 
Q 2706 997 2706 1503 
Q 2706 1984 2436 2262 
Q 2166 2541 1728 2541 
Q 1456 2541 1237 2417 
Q 1019 2294 894 2097 
L 366 2166 
L 809 4519 
L 3088 4519 
L 3088 3981 
L 1259 3981 
L 1013 2750 
Q 1425 3038 1878 3038 
Q 2478 3038 2890 2622 
Q 3303 2206 3303 1553 
Q 3303 931 2941 478 
Q 2500 -78 1738 -78 
Q 1113 -78 717 272 
Q 322 622 266 1200 
z
" transform="scale(0.015625)"/>
       </defs>
       <use xlink:href="#ArialMT-32"/>
       <use xlink:href="#ArialMT-35" x="55.615234"/>
       <use xlink:href="#ArialMT-30" x="111.230469"/>
       <use xlink:href="#ArialMT-30" x="166.845703"/>
       <use xlink:href="#ArialMT-30" x="222.460938"/>
      </g>
     </g>
    </g>
    <g id="ytick_3">
     <g id="line2d_3">
      <path d="M 229.412263 278.950089 
L 1010.612263 278.950089 
" clip-path="url(#pe677a2bb00)" style="fill: none; stroke: #ffffff; stroke-linecap: round"/>
     </g>
     <g id="text_15">
      <!-- 50000 -->
      <g style="fill: #262626" transform="translate(174.034529 284.855284) scale(0.165 -0.165)">
       <use xlink:href="#ArialMT-35"/>
       <use xlink:href="#ArialMT-30" x="55.615234"/>
       <use xlink:href="#ArialMT-30" x="111.230469"/>
       <use xlink:href="#ArialMT-30" x="166.845703"/>
       <use xlink:href="#ArialMT-30" x="222.460938"/>
      </g>
     </g>
    </g>
    <g id="ytick_4">
     <g id="line2d_4">
      <path d="M 229.412263 239.063102 
L 1010.612263 239.063102 
" clip-path="url(#pe677a2bb00)" style="fill: none; stroke: #ffffff; stroke-linecap: round"/>
     </g>
     <g id="text_16">
      <!-- 75000 -->
      <g style="fill: #262626" transform="translate(174.034529 244.968297) scale(0.165 -0.165)">
       <defs>
        <path id="ArialMT-37" d="M 303 3981 
L 303 4522 
L 3269 4522 
L 3269 4084 
Q 2831 3619 2401 2847 
Q 1972 2075 1738 1259 
Q 1569 684 1522 0 
L 944 0 
Q 953 541 1156 1306 
Q 1359 2072 1739 2783 
Q 2119 3494 2547 3981 
L 303 3981 
z
" transform="scale(0.015625)"/>
       </defs>
       <use xlink:href="#ArialMT-37"/>
       <use xlink:href="#ArialMT-35" x="55.615234"/>
       <use xlink:href="#ArialMT-30" x="111.230469"/>
       <use xlink:href="#ArialMT-30" x="166.845703"/>
       <use xlink:href="#ArialMT-30" x="222.460938"/>
      </g>
     </g>
    </g>
    <g id="ytick_5">
     <g id="line2d_5">
      <path d="M 229.412263 199.176115 
L 1010.612263 199.176115 
" clip-path="url(#pe677a2bb00)" style="fill: none; stroke: #ffffff; stroke-linecap: round"/>
     </g>
     <g id="text_17">
      <!-- 100000 -->
      <g style="fill: #262626" transform="translate(164.858982 205.08131) scale(0.165 -0.165)">
       <defs>
        <path id="ArialMT-31" d="M 2384 0 
L 1822 0 
L 1822 3584 
Q 1619 3391 1289 3197 
Q 959 3003 697 2906 
L 697 3450 
Q 1169 3672 1522 3987 
Q 1875 4303 2022 4600 
L 2384 4600 
L 2384 0 
z
" transform="scale(0.015625)"/>
       </defs>
       <use xlink:href="#ArialMT-31"/>
       <use xlink:href="#ArialMT-30" x="55.615234"/>
       <use xlink:href="#ArialMT-30" x="111.230469"/>
       <use xlink:href="#ArialMT-30" x="166.845703"/>
       <use xlink:href="#ArialMT-30" x="222.460938"/>
       <use xlink:href="#ArialMT-30" x="278.076172"/>
      </g>
     </g>
    </g>
    <g id="ytick_6">
     <g id="line2d_6">
      <path d="M 229.412263 159.289128 
L 1010.612263 159.289128 
" clip-path="url(#pe677a2bb00)" style="fill: none; stroke: #ffffff; stroke-linecap: round"/>
     </g>
     <g id="text_18">
      <!-- 125000 -->
      <g style="fill: #262626" transform="translate(164.858982 165.194323) scale(0.165 -0.165)">
       <use xlink:href="#ArialMT-31"/>
       <use xlink:href="#ArialMT-32" x="55.615234"/>
       <use xlink:href="#ArialMT-35" x="111.230469"/>
       <use xlink:href="#ArialMT-30" x="166.845703"/>
       <use xlink:href="#ArialMT-30" x="222.460938"/>
       <use xlink:href="#ArialMT-30" x="278.076172"/>
      </g>
     </g>
    </g>
    <g id="ytick_7">
     <g id="line2d_7">
      <path d="M 229.412263 119.402141 
L 1010.612263 119.402141 
" clip-path="url(#pe677a2bb00)" style="fill: none; stroke: #ffffff; stroke-linecap: round"/>
     </g>
     <g id="text_19">
      <!-- 150000 -->
      <g style="fill: #262626" transform="translate(164.858982 125.307337) scale(0.165 -0.165)">
       <use xlink:href="#ArialMT-31"/>
       <use xlink:href="#ArialMT-35" x="55.615234"/>
       <use xlink:href="#ArialMT-30" x="111.230469"/>
       <use xlink:href="#ArialMT-30" x="166.845703"/>
       <use xlink:href="#ArialMT-30" x="222.460938"/>
       <use xlink:href="#ArialMT-30" x="278.076172"/>
      </g>
     </g>
    </g>
    <g id="ytick_8">
     <g id="line2d_8">
      <path d="M 229.412263 79.515154 
L 1010.612263 79.515154 
" clip-path="url(#pe677a2bb00)" style="fill: none; stroke: #ffffff; stroke-linecap: round"/>
     </g>
     <g id="text_20">
      <!-- 175000 -->
      <g style="fill: #262626" transform="translate(164.858982 85.42035) scale(0.165 -0.165)">
       <use xlink:href="#ArialMT-31"/>
       <use xlink:href="#ArialMT-37" x="55.615234"/>
       <use xlink:href="#ArialMT-35" x="111.230469"/>
       <use xlink:href="#ArialMT-30" x="166.845703"/>
       <use xlink:href="#ArialMT-30" x="222.460938"/>
       <use xlink:href="#ArialMT-30" x="278.076172"/>
      </g>
     </g>
    </g>
    <g id="ytick_9">
     <g id="line2d_9">
      <path d="M 229.412263 39.628168 
L 1010.612263 39.628168 
" clip-path="url(#pe677a2bb00)" style="fill: none; stroke: #ffffff; stroke-linecap: round"/>
     </g>
     <g id="text_21">
      <!-- 200000 -->
      <g style="fill: #262626" transform="translate(164.858982 45.533363) scale(0.165 -0.165)">
       <use xlink:href="#ArialMT-32"/>
       <use xlink:href="#ArialMT-30" x="55.615234"/>
       <use xlink:href="#ArialMT-30" x="111.230469"/>
       <use xlink:href="#ArialMT-30" x="166.845703"/>
       <use xlink:href="#ArialMT-30" x="222.460938"/>
       <use xlink:href="#ArialMT-30" x="278.076172"/>
      </g>
     </g>
    </g>
    <g id="text_22">
     <!-- occur. (abs) -->
     <g style="fill: #262626" transform="translate(157.070545 239.419219) rotate(-90) scale(0.18 -0.18)">
      <defs>
       <path id="ArialMT-2e" d="M 581 0 
L 581 641 
L 1222 641 
L 1222 0 
L 581 0 
z
" transform="scale(0.015625)"/>
       <path id="ArialMT-20" transform="scale(0.015625)"/>
       <path id="ArialMT-28" d="M 1497 -1347 
Q 1031 -759 709 28 
Q 388 816 388 1659 
Q 388 2403 628 3084 
Q 909 3875 1497 4659 
L 1900 4659 
Q 1522 4009 1400 3731 
Q 1209 3300 1100 2831 
Q 966 2247 966 1656 
Q 966 153 1900 -1347 
L 1497 -1347 
z
" transform="scale(0.015625)"/>
       <path id="ArialMT-29" d="M 791 -1347 
L 388 -1347 
Q 1322 153 1322 1656 
Q 1322 2244 1188 2822 
Q 1081 3291 891 3722 
Q 769 4003 388 4659 
L 791 4659 
Q 1378 3875 1659 3084 
Q 1900 2403 1900 1659 
Q 1900 816 1576 28 
Q 1253 -759 791 -1347 
z
" transform="scale(0.015625)"/>
      </defs>
      <use xlink:href="#ArialMT-6f"/>
      <use xlink:href="#ArialMT-63" x="55.615234"/>
      <use xlink:href="#ArialMT-63" x="105.615234"/>
      <use xlink:href="#ArialMT-75" x="155.615234"/>
      <use xlink:href="#ArialMT-72" x="211.230469"/>
      <use xlink:href="#ArialMT-2e" x="239.03125"/>
      <use xlink:href="#ArialMT-20" x="266.814453"/>
      <use xlink:href="#ArialMT-28" x="294.597656"/>
      <use xlink:href="#ArialMT-61" x="327.898438"/>
      <use xlink:href="#ArialMT-62" x="383.513672"/>
      <use xlink:href="#ArialMT-73" x="439.128906"/>
      <use xlink:href="#ArialMT-29" x="489.128906"/>
     </g>
    </g>
   </g>
   <g id="patch_3">
    <path d="M 236.514082 358.724063 
L 293.328627 358.724063 
L 293.328627 41.924062 
L 236.514082 41.924062 
z
" clip-path="url(#pe677a2bb00)" style="fill: #ea96a3; stroke: #ffffff; stroke-linejoin: miter"/>
   </g>
   <g id="patch_4">
    <path d="M 307.532263 358.724063 
L 364.346809 358.724063 
L 364.346809 252.704451 
L 307.532263 252.704451 
z
" clip-path="url(#pe677a2bb00)" style="fill: #dc924e; stroke: #ffffff; stroke-linejoin: miter"/>
   </g>
   <g id="patch_5">
    <path d="M 378.550445 358.724063 
L 435.364991 358.724063 
L 435.364991 321.866891 
L 378.550445 321.866891 
z
" clip-path="url(#pe677a2bb00)" style="fill: #b39d48; stroke: #ffffff; stroke-linejoin: miter"/>
   </g>
   <g id="patch_6">
    <path d="M 449.568627 358.724063 
L 506.383172 358.724063 
L 506.383172 323.37781 
L 449.568627 323.37781 
z
" clip-path="url(#pe677a2bb00)" style="fill: #8ea546; stroke: #ffffff; stroke-linejoin: miter"/>
   </g>
   <g id="patch_7">
    <path d="M 520.586809 358.724063 
L 577.401354 358.724063 
L 577.401354 327.428733 
L 520.586809 327.428733 
z
" clip-path="url(#pe677a2bb00)" style="fill: #48b067; stroke: #ffffff; stroke-linejoin: miter"/>
   </g>
   <g id="patch_8">
    <path d="M 591.604991 358.724063 
L 648.419536 358.724063 
L 648.419536 330.386752 
L 591.604991 330.386752 
z
" clip-path="url(#pe677a2bb00)" style="fill: #4aac98; stroke: #ffffff; stroke-linejoin: miter"/>
   </g>
   <g id="patch_9">
    <path d="M 662.623172 358.724063 
L 719.437718 358.724063 
L 719.437718 341.015836 
L 662.623172 341.015836 
z
" clip-path="url(#pe677a2bb00)" style="fill: #4dabb0; stroke: #ffffff; stroke-linejoin: miter"/>
   </g>
   <g id="patch_10">
    <path d="M 733.641354 358.724063 
L 790.4559 358.724063 
L 790.4559 344.449308 
L 733.641354 344.449308 
z
" clip-path="url(#pe677a2bb00)" style="fill: #54acd3; stroke: #ffffff; stroke-linejoin: miter"/>
   </g>
   <g id="patch_11">
    <path d="M 804.659536 358.724063 
L 861.474082 358.724063 
L 861.474082 351.142344 
L 804.659536 351.142344 
z
" clip-path="url(#pe677a2bb00)" style="fill: #a9aceb; stroke: #ffffff; stroke-linejoin: miter"/>
   </g>
   <g id="patch_12">
    <path d="M 875.677718 358.724063 
L 932.492263 358.724063 
L 932.492263 352.129946 
L 875.677718 352.129946 
z
" clip-path="url(#pe677a2bb00)" style="fill: #d795e8; stroke: #ffffff; stroke-linejoin: miter"/>
   </g>
   <g id="patch_13">
    <path d="M 946.6959 358.724063 
L 1003.510445 358.724063 
L 1003.510445 352.493715 
L 946.6959 352.493715 
z
" clip-path="url(#pe677a2bb00)" style="fill: #e88fc9; stroke: #ffffff; stroke-linejoin: miter"/>
   </g>
   <g id="line2d_10">
    <path clip-path="url(#pe677a2bb00)" style="fill: none; stroke: #424242; stroke-width: 2.7; stroke-linecap: round"/>
   </g>
   <g id="line2d_11">
    <path clip-path="url(#pe677a2bb00)" style="fill: none; stroke: #424242; stroke-width: 2.7; stroke-linecap: round"/>
   </g>
   <g id="line2d_12">
    <path clip-path="url(#pe677a2bb00)" style="fill: none; stroke: #424242; stroke-width: 2.7; stroke-linecap: round"/>
   </g>
   <g id="line2d_13">
    <path clip-path="url(#pe677a2bb00)" style="fill: none; stroke: #424242; stroke-width: 2.7; stroke-linecap: round"/>
   </g>
   <g id="line2d_14">
    <path clip-path="url(#pe677a2bb00)" style="fill: none; stroke: #424242; stroke-width: 2.7; stroke-linecap: round"/>
   </g>
   <g id="line2d_15">
    <path clip-path="url(#pe677a2bb00)" style="fill: none; stroke: #424242; stroke-width: 2.7; stroke-linecap: round"/>
   </g>
   <g id="line2d_16">
    <path clip-path="url(#pe677a2bb00)" style="fill: none; stroke: #424242; stroke-width: 2.7; stroke-linecap: round"/>
   </g>
   <g id="line2d_17">
    <path clip-path="url(#pe677a2bb00)" style="fill: none; stroke: #424242; stroke-width: 2.7; stroke-linecap: round"/>
   </g>
   <g id="line2d_18">
    <path clip-path="url(#pe677a2bb00)" style="fill: none; stroke: #424242; stroke-width: 2.7; stroke-linecap: round"/>
   </g>
   <g id="line2d_19">
    <path clip-path="url(#pe677a2bb00)" style="fill: none; stroke: #424242; stroke-width: 2.7; stroke-linecap: round"/>
   </g>
   <g id="line2d_20">
    <path clip-path="url(#pe677a2bb00)" style="fill: none; stroke: #424242; stroke-width: 2.7; stroke-linecap: round"/>
   </g>
   <g id="patch_14">
    <path d="M 229.412263 358.724063 
L 229.412263 26.084062 
" style="fill: none; stroke: #ffffff; stroke-width: 1.25; stroke-linejoin: miter; stroke-linecap: square"/>
   </g>
   <g id="patch_15">
    <path d="M 1010.612263 358.724063 
L 1010.612263 26.084062 
" style="fill: none; stroke: #ffffff; stroke-width: 1.25; stroke-linejoin: miter; stroke-linecap: square"/>
   </g>
   <g id="patch_16">
    <path d="M 229.412263 358.724063 
L 1010.612263 358.724063 
" style="fill: none; stroke: #ffffff; stroke-width: 1.25; stroke-linejoin: miter; stroke-linecap: square"/>
   </g>
   <g id="patch_17">
    <path d="M 229.412263 26.084062 
L 1010.612263 26.084062 
" style="fill: none; stroke: #ffffff; stroke-width: 1.25; stroke-linejoin: miter; stroke-linecap: square"/>
   </g>
   <g id="text_23">
    <!-- has_superstructure_X distribution -->
    <g style="fill: #262626" transform="translate(485.948826 20.084062) scale(0.18 -0.18)">
     <defs>
      <path id="ArialMT-58" d="M 28 0 
L 1800 2388 
L 238 4581 
L 959 4581 
L 1791 3406 
Q 2050 3041 2159 2844 
Q 2313 3094 2522 3366 
L 3444 4581 
L 4103 4581 
L 2494 2422 
L 4228 0 
L 3478 0 
L 2325 1634 
Q 2228 1775 2125 1941 
Q 1972 1691 1906 1597 
L 756 0 
L 28 0 
z
" transform="scale(0.015625)"/>
     </defs>
     <use xlink:href="#ArialMT-68"/>
     <use xlink:href="#ArialMT-61" x="55.615234"/>
     <use xlink:href="#ArialMT-73" x="111.230469"/>
     <use xlink:href="#ArialMT-5f" x="161.230469"/>
     <use xlink:href="#ArialMT-73" x="216.845703"/>
     <use xlink:href="#ArialMT-75" x="266.845703"/>
     <use xlink:href="#ArialMT-70" x="322.460938"/>
     <use xlink:href="#ArialMT-65" x="378.076172"/>
     <use xlink:href="#ArialMT-72" x="433.691406"/>
     <use xlink:href="#ArialMT-73" x="466.992188"/>
     <use xlink:href="#ArialMT-74" x="516.992188"/>
     <use xlink:href="#ArialMT-72" x="544.775391"/>
     <use xlink:href="#ArialMT-75" x="578.076172"/>
     <use xlink:href="#ArialMT-63" x="633.691406"/>
     <use xlink:href="#ArialMT-74" x="683.691406"/>
     <use xlink:href="#ArialMT-75" x="711.474609"/>
     <use xlink:href="#ArialMT-72" x="767.089844"/>
     <use xlink:href="#ArialMT-65" x="800.390625"/>
     <use xlink:href="#ArialMT-5f" x="856.005859"/>
     <use xlink:href="#ArialMT-58" x="911.621094"/>
     <use xlink:href="#ArialMT-20" x="978.320312"/>
     <use xlink:href="#ArialMT-64" x="1006.103516"/>
     <use xlink:href="#ArialMT-69" x="1061.71875"/>
     <use xlink:href="#ArialMT-73" x="1083.935547"/>
     <use xlink:href="#ArialMT-74" x="1133.935547"/>
     <use xlink:href="#ArialMT-72" x="1161.71875"/>
     <use xlink:href="#ArialMT-69" x="1195.019531"/>
     <use xlink:href="#ArialMT-62" x="1217.236328"/>
     <use xlink:href="#ArialMT-75" x="1272.851562"/>
     <use xlink:href="#ArialMT-74" x="1328.466797"/>
     <use xlink:href="#ArialMT-69" x="1356.25"/>
     <use xlink:href="#ArialMT-6f" x="1378.466797"/>
     <use xlink:href="#ArialMT-6e" x="1434.082031"/>
    </g>
   </g>
  </g>
 </g>
 <defs>
  <clipPath id="pe677a2bb00">
   <rect x="229.412263" y="26.084062" width="781.2" height="332.64"/>
  </clipPath>
 </defs>
</svg>
